<?xml version="1.0" encoding="UTF-8" standalone="no"?>
<!-- Created with Inkscape (http://www.inkscape.org/) -->

<svg
   xmlns:dc="http://purl.org/dc/elements/1.1/"
   xmlns:cc="http://creativecommons.org/ns#"
   xmlns:rdf="http://www.w3.org/1999/02/22-rdf-syntax-ns#"
   xmlns:svg="http://www.w3.org/2000/svg"
   xmlns="http://www.w3.org/2000/svg"
   version="1.1"
   width="300"
   height="226.61029"
   viewBox="0 0 300 226.61029"
   id="svg25339">
  <defs
     id="defs25341" />
  <metadata
     id="metadata25344">
    <rdf:RDF>
      <cc:Work
         rdf:about="">
        <dc:format>image/svg+xml</dc:format>
        <dc:type
           rdf:resource="http://purl.org/dc/dcmitype/StillImage" />
        <dc:title></dc:title>
      </cc:Work>
    </rdf:RDF>
  </metadata>
  <g
     transform="translate(-220.63417,-318.0534)"
     id="layer1">
    <g
       transform="matrix(7.6928009,0,0,7.6928009,-4283.6697,-6131.3154)"
       id="g25044">
      <path
         d="m 595.73946,846.26044 -1.4275,0.68625 c -1.08125,-0.77625 -4.09625,-1.0975 -3.75125,1.2975 -1.92875,-0.3 -2.4625,1.0925 -2.03,2.3275 -1.88125,-0.35 -2.29375,1.96625 -1.45375,2.54625 -0.89125,-0.0375 -1.455,0.4325 -1.555,1.14375 l 0,0.485 c 0.0788,0.585 0.41625,1.2675 1.07,1.93875 l 0.835,0.265 c 1.465,1.465 3.49375,1.615 4.7725,1.29625 -0.76625,-0.22125 -2.34375,-1.7925 -2.04,-1.66625 2.37875,0.97625 2.8525,1.02875 5.58,-0.0237 l 0,-8.395 c -0.1975,-0.24625 -0.485,-0.52625 -0.7325,-0.71125 l 0.7325,-0.0825 0,-1.1075 z m 0,-1.5175 -3.56875,0.355 3.56875,0.64875 0,-1.00375 z m 0,-1.8425 -2.68875,-0.325 2.68875,1.17625 0,-0.85125 z m 7.6575,-4.53625 -3.34125,1.47625 -1.595,1.38625 -2.66625,1.20125 1.00375,0.59625 -1.05875,-0.12375 0,0.85125 1.04875,0.45625 -0.7225,0.19875 0.35,0.27 -0.67625,0.0662 0,1.00375 0.7775,0.14 -0.7775,0.37375 0,1.1075 0.55125,-0.055 0.185,0.83375 -0.5225,0.3225 c -0.045,-0.0925 -0.11875,-0.1925 -0.21375,-0.3075 l -2.475,8.395 c 0.0762,-0.0362 -0.2975,-0.0625 -0.21875,-0.09 l 12.11375,11.355 c 3.59125,-3.39 8.48,-8.03 11.8975,-11.355 0.02,-0.03 -2.32375,-0.0175 -2.2425,0.015 l -0.45,-8.26 c -0.0612,0.0838 -0.10625,0.1625 -0.1475,0.23625 l -0.55125,-0.32625 0.1075,-0.78875 0.59125,0.065 0,-1.2275 -0.75625,-0.38375 0.75625,-0.1275 0,-0.92625 -0.73375,-0.0662 0.3225,-0.21 -0.7225,-0.24125 1.13375,-0.49 0,-0.795 -0.9875,0.12875 0.89,-0.65875 -2.675,-1.165 -1.60125,-1.38875 -3.33,-1.47375 -1.6125,0.5725 -1.65125,-0.59125 z m 10.9675,5.37125 2.6375,-1.14375 -2.6375,0.34875 0,0.795 z m 0,1.93375 3.545,-0.62125 -3.545,-0.305 0,0.92625 z m 0,10.8125 c 0.56875,0.24375 2.575,1.69875 5.46625,0.10125 0.0225,-0.01 -1.1225,1.5725 -1.82625,1.71875 1.37,0.10875 3.29625,0.0237 4.76125,-1.44875 l 0.7725,-0.1725 c 0.58625,-0.67625 0.9125,-1.375 0.98125,-1.975 l 0,-0.415 c -0.085,-0.6775 -0.5825,-1.14375 -1.51625,-1.13875 1.03625,-0.67125 0.49,-2.93 -1.39125,-2.575 0.3375,-1.3875 -0.0737,-2.575 -2.0025,-2.27625 0.40125,-2.60375 -2.6025,-1.905 -3.78625,-1.37625 l -1.45875,-0.74375 0,1.2275 0.6975,0.08 c -0.265,0.20375 -0.52375,0.48375 -0.6975,0.73375 l 0,8.26 z"
         id="path11623"
         style="fill:#ffffff;fill-opacity:1;fill-rule:nonzero;stroke:none" />
      <path
         d="m 621.23883,851.94569 -16.09375,15.375 -16.0875,-15.3225 32.18125,-0.0525 z"
         id="path11627"
         style="fill:#000000;fill-opacity:1;fill-rule:nonzero;stroke:none" />
      <path
         d="m 619.17721,848.7572 c 2.2425,-0.35 2.405,0.70375 2.0525,2.255 1.94125,-0.3125 2.30875,1.01875 1.35625,2.53875 2.36625,-0.0512 1.6225,1.77125 0.71,2.955 l -0.67625,0.145 c -1.0475,0.9175 -2.0625,1.40375 -3.72,1.41125 0.5025,-0.50875 1.15625,-1.0125 1.43125,-1.65375 l -0.55125,-0.145 c -1.9725,0.78375 -3.01,0.94375 -5.235,-0.15125 l 0.19625,0.35875 c -2.37875,-0.79875 -4.22,-2.17625 -4.4125,-5.03625 0.835,-2.04625 2.4125,-2.17125 3.49875,-2.03625 0.9425,-1.70625 4.47625,-3.6625 5.35,-1.94375 0.1575,0.315 0.1275,0.71625 0,1.3025"
         id="path11631"
         style="fill:#000000;fill-opacity:1;fill-rule:nonzero;stroke:none" />
      <path
         d="m 613.98071,849.62982 c -1.995,-0.11875 -4.2325,1.2675 -2.885,3.6975 l 2.7775,2.0725 c 1.88875,1.30875 3.535,1.74125 5.895,0.60875 0.975,0.2975 2.3325,0.4125 3.3375,0.255 1.08125,-1.85375 0.8675,-2.5575 -1.1675,-2.405 1.3625,-1.3275 0.9575,-3.10125 -1.42,-2.18875 0.52375,-0.72 1.21125,-3.57875 -1.945,-2.15875 0.925,-4.125 -3.2675,-1.58375 -4.5925,0.11875"
         id="path11635"
         style="fill:#f68b1f;fill-opacity:1;fill-rule:nonzero;stroke:none" />
      <path
         d="m 615.58684,849.83432 c -0.4225,0.0375 -0.80125,0.26125 -1.1725,0.8275 l -0.1625,-0.295 c -0.15875,-0.20625 -0.35625,-0.2925 -0.55875,-0.2975 0.305,0.47375 0.49125,0.8675 0.4625,1.44875 -0.13,0.2875 -1.0775,2.98125 0.4275,3.75875 0.935,-0.16375 1.96125,-0.4225 3.10125,-1.105 -0.8975,0.97375 -1.945,1.18875 -2.67875,1.3925 0.71625,0.585 1.5725,0.74125 2.83625,0.495 l 2.19625,-2.5125 -0.2975,-1.05625 -0.83,-1.35125 -1.6575,-1.1275 -1.66625,-0.1775 z"
         id="path11639"
         style="fill:#000000;fill-opacity:1;fill-rule:nonzero;stroke:none" />
      <path
         d="m 615.53696,848.6097 c -0.1475,1.49375 -0.49625,2.26625 -1.57875,3.4225 2.0275,-0.0412 4.10875,-1.34375 4.3725,-2.52625 0.27125,-1.23375 -0.16875,-1.59 -0.6925,-1.81375 -0.68875,-0.305 -1.64625,0.20625 -2.10125,0.9175"
         id="path11643"
         style="fill:#000000;fill-opacity:1;fill-rule:nonzero;stroke:none" />
      <path
         d="m 613.77733,852.36182 c -0.42875,1.52125 0.0187,2.59875 0.615,3.7875 -1.97875,-0.5175 -3.22375,-1.95375 -3.48875,-3.13875 -0.27625,-1.2325 0.30625,-1.60375 0.82875,-1.83125 0.6875,-0.30375 1.59625,0.47375 2.045,1.1825"
         id="path11647"
         style="fill:#000000;fill-opacity:1;fill-rule:nonzero;stroke:none" />
      <path
         d="m 617.34521,850.76869 c -0.14625,1.49375 -0.49625,2.26625 -1.57875,3.42 2.03375,-0.0387 4.10875,-1.335 4.37375,-2.52625 0.27125,-1.23125 -0.16875,-1.58 -0.69125,-1.81375 -0.68875,-0.305 -1.64875,0.20875 -2.10375,0.92"
         id="path11651"
         style="fill:#000000;fill-opacity:1;fill-rule:nonzero;stroke:none" />
      <path
         d="m 619.02983,852.96107 c -0.11875,1.48875 -0.68125,2.3375 -1.73625,3.515 2.04625,-0.0338 4.30625,-1.49375 4.54375,-2.6825 0.2475,-1.23875 -0.19875,-1.58125 -0.7275,-1.8025 -0.69375,-0.2875 -1.64,0.2425 -2.08,0.97"
         id="path11655"
         style="fill:#000000;fill-opacity:1;fill-rule:nonzero;stroke:none" />
      <path
         d="m 620.77633,854.90607 c -0.10125,1.2775 -0.585,2.00375 -1.4925,3.01875 1.7525,-0.0275 3.6975,-1.285 3.9,-2.305 0.21375,-1.065 -0.17625,-1.3575 -0.62625,-1.54375 -0.595,-0.2425 -1.40875,0.20875 -1.78125,0.83"
         id="path11659"
         style="fill:#000000;fill-opacity:1;fill-rule:nonzero;stroke:none" />
      <path
         d="m 615.66046,848.9807 c 0.0225,-0.98 2.58625,-2.06125 2.45625,0.2875 -0.0462,0.74 -1.695,2.43 -4.04,2.70625 0,0 1.5325,-0.9875 1.58375,-2.99375"
         id="path11663"
         style="fill:#ffffff;fill-opacity:1;fill-rule:nonzero;stroke:none" />
      <path
         d="m 617.54846,851.09445 c 0.0225,-0.98 2.59125,-2.06125 2.45625,0.2875 -0.0388,0.74 -1.69,2.43 -4.04,2.70625 0,0 1.53875,-0.9875 1.58375,-2.99375"
         id="path11667"
         style="fill:#ffffff;fill-opacity:1;fill-rule:nonzero;stroke:none" />
      <path
         d="m 619.09171,851.2182 c 0.17625,0.0175 0.305,0.21 0.305,0.58125 -0.62625,1.015 -1.51625,1.50375 -2.25875,1.76375 0.70375,-0.6875 1.3725,-1.37 1.95375,-2.345"
         id="path11671"
         style="fill:#000000;fill-opacity:1;fill-rule:nonzero;stroke:none" />
      <path
         d="m 619.50896,851.56295 c -0.0388,-0.1925 -0.12375,-0.32875 -0.28625,-0.45625 0.185,-0.1075 0.37625,-0.37875 0.4275,-0.63375 0.1525,0.44875 0.21375,0.73125 -0.14125,1.09"
         id="path11675"
         style="fill:#000000;fill-opacity:1;fill-rule:nonzero;stroke:none" />
      <path
         d="m 619.19396,853.32245 c 0.0225,-0.9825 2.5875,-2.07125 2.45625,0.285 -0.0388,0.7375 -1.695,2.43 -4.04,2.70625 0,0 1.53875,-0.9875 1.58375,-2.99125"
         id="path11679"
         style="fill:#ffdd00;fill-opacity:1;fill-rule:nonzero;stroke:none" />
      <path
         d="m 620.71571,853.55795 c 0.1575,0.0125 0.27625,0.185 0.28125,0.53125 -0.56875,0.93375 -1.38625,1.3825 -2.06875,1.625 0.64375,-0.635 1.25625,-1.2625 1.7875,-2.15625"
         id="path11683"
         style="fill:#000000;fill-opacity:1;fill-rule:nonzero;stroke:none" />
      <path
         d="m 621.12708,853.90745 c -0.04,-0.21 -0.12375,-0.36125 -0.29375,-0.50875 0.20375,-0.105 0.42125,-0.3925 0.48375,-0.67625 0.1525,0.49875 0.20875,0.80625 -0.19,1.185"
         id="path11687"
         style="fill:#000000;fill-opacity:1;fill-rule:nonzero;stroke:none" />
      <path
         d="m 619.19396,853.32245 c 0.0225,-0.9825 2.5875,-2.07125 2.45625,0.285 -0.0388,0.7375 -1.695,2.43 -4.04,2.70625 0,0 1.53875,-0.9875 1.58375,-2.99125"
         id="path11691"
         style="fill:#ffffff;fill-opacity:1;fill-rule:nonzero;stroke:none" />
      <path
         d="m 620.71571,853.55795 c 0.1575,0.0125 0.27625,0.185 0.28125,0.53125 -0.56875,0.93375 -1.38625,1.3825 -2.06875,1.625 0.64375,-0.635 1.25625,-1.2625 1.7875,-2.15625"
         id="path11695"
         style="fill:#000000;fill-opacity:1;fill-rule:nonzero;stroke:none" />
      <path
         d="m 621.12708,853.90745 c -0.04,-0.21 -0.12375,-0.36125 -0.29375,-0.50875 0.20375,-0.105 0.42125,-0.3925 0.48375,-0.67625 0.1525,0.49875 0.20875,0.80625 -0.19,1.185"
         id="path11699"
         style="fill:#000000;fill-opacity:1;fill-rule:nonzero;stroke:none" />
      <path
         d="m 620.87271,855.26994 c 0.0175,-0.85125 2.2425,-1.78625 2.125,0.25 -0.035,0.63875 -1.46625,2.1075 -3.5,2.34375 0,0 1.33625,-0.8575 1.375,-2.59375"
         id="path11703"
         style="fill:#ffffff;fill-opacity:1;fill-rule:nonzero;stroke:none" />
      <path
         d="m 622.17446,855.51245 c 0.13625,0.025 0.23125,0.17625 0.22,0.46875 -0.53,0.77 -1.24625,1.1275 -1.83625,1.3 0.57375,-0.51125 1.12625,-1.025 1.61625,-1.76875"
         id="path11707"
         style="fill:#000000;fill-opacity:1;fill-rule:nonzero;stroke:none" />
      <path
         d="m 622.58583,855.81195 c -0.05,-0.17625 -0.14625,-0.3 -0.31,-0.41125 0.16875,-0.115 0.3275,-0.3875 0.355,-0.64125 0.18625,0.41625 0.265,0.67875 -0.045,1.0525"
         id="path11711"
         style="fill:#000000;fill-opacity:1;fill-rule:nonzero;stroke:none" />
      <path
         d="m 613.49083,852.85882 c 0.20375,-0.9625 -2.0575,-2.59875 -2.4575,-0.27625 -0.12375,0.7275 1.10625,2.74375 3.325,3.54375 0,0 -1.2725,-1.30125 -0.8675,-3.2675"
         id="path11715"
         style="fill:#ffffff;fill-opacity:1;fill-rule:nonzero;stroke:none" />
      <path
         d="m 612.18421,852.68532 c -0.17,-0.035 -0.345,0.11875 -0.44,0.4825 0.34875,1.14375 1.09125,1.8475 1.7525,2.29 -0.51375,-0.84625 -0.9925,-1.68125 -1.3125,-2.7725"
         id="path11719"
         style="fill:#000000;fill-opacity:1;fill-rule:nonzero;stroke:none" />
      <path
         d="m 611.90596,851.87207 0.18625,0.59125 c -0.21875,0.045 -0.4,0.23875 -0.5,0.49875 -0.0738,-0.125 -0.18,-0.36625 -0.16,-0.57125 0.1025,-0.2125 0.255,-0.38875 0.47375,-0.51875"
         id="path11723"
         style="fill:#000000;fill-opacity:1;fill-rule:nonzero;stroke:none" />
      <path
         d="m 617.24408,849.1067 c 0.14,0.005 0.2475,0.1525 0.27,0.44875 -0.4625,0.8425 -1.15625,1.2675 -1.7425,1.51 0.53625,-0.58 1.04875,-1.155 1.4725,-1.95875"
         id="path11727"
         style="fill:#000000;fill-opacity:1;fill-rule:nonzero;stroke:none" />
      <path
         d="m 617.63771,849.37532 c -0.0512,-0.1775 -0.14625,-0.30875 -0.30875,-0.42125 0.16875,-0.1175 0.3375,-0.395 0.3725,-0.65375 0.17875,0.42875 0.25875,0.70375 -0.0638,1.075"
         id="path11731"
         style="fill:#000000;fill-opacity:1;fill-rule:nonzero;stroke:none" />
      <path
         d="m 590.94333,848.7572 c -2.24375,-0.35 -2.4075,0.70375 -2.0525,2.255 -1.94375,-0.3125 -2.31125,1.01875 -1.3575,2.53875 -2.36625,-0.0512 -1.6225,1.77125 -0.71125,2.955 l 0.67875,0.145 c 1.04,0.9175 2.06125,1.40375 3.71875,1.41125 -0.5025,-0.50875 -1.155,-1.0125 -1.43125,-1.65375 l 0.55125,-0.145 c 1.97375,0.78375 3.01,0.94375 5.23625,-0.15125 l -0.1975,0.35875 c 2.3775,-0.79875 4.215,-2.17625 4.41375,-5.03625 -0.83625,-2.04625 -2.41375,-2.17125 -3.50125,-2.03625 -0.94125,-1.70625 -4.475,-3.6625 -5.3475,-1.94375 -0.1575,0.315 -0.13,0.71625 0,1.3025"
         id="path11735"
         style="fill:#000000;fill-opacity:1;fill-rule:nonzero;stroke:none" />
      <path
         d="m 596.13896,849.62982 c 1.995,-0.11875 4.2325,1.2675 2.88625,3.6975 l -2.77875,2.0725 c -1.88875,1.30875 -3.54,1.74125 -5.895,0.60875 -0.98125,0.2975 -2.3325,0.4125 -3.33625,0.255 -1.0825,-1.85375 -0.8675,-2.5575 1.16625,-2.405 -1.3625,-1.3275 -0.9575,-3.10125 1.42125,-2.18875 -0.53125,-0.72 -1.2125,-3.57875 1.94375,-2.15875 -0.92375,-4.125 3.2675,-1.58375 4.5925,0.11875"
         id="path11739"
         style="fill:#f68b1f;fill-opacity:1;fill-rule:nonzero;stroke:none" />
      <path
         d="m 594.53271,849.83432 c 0.42375,0.0375 0.8,0.26125 1.17375,0.8275 l 0.16125,-0.295 c 0.15875,-0.20625 0.3575,-0.2925 0.55875,-0.2975 -0.30375,0.47375 -0.49125,0.8675 -0.4625,1.44875 0.125,0.2875 1.07625,2.98125 -0.42875,3.75875 -0.93375,-0.16375 -1.96,-0.4225 -3.09875,-1.105 0.89625,0.97375 1.94375,1.18875 2.67875,1.3925 -0.71625,0.585 -1.5725,0.74125 -2.8375,0.495 l -2.1975,-2.5125 0.3,-1.05625 0.8275,-1.35125 1.6525,-1.1275 1.6725,-0.1775 z"
         id="path11743"
         style="fill:#000000;fill-opacity:1;fill-rule:nonzero;stroke:none" />
      <path
         d="m 594.58396,848.6097 c 0.14625,1.49375 0.49375,2.26625 1.57625,3.4225 -2.0325,-0.0412 -4.10625,-1.34375 -4.3725,-2.52625 -0.27,-1.23375 0.16875,-1.59 0.69375,-1.81375 0.6875,-0.305 1.64625,0.20625 2.1025,0.9175"
         id="path11747"
         style="fill:#000000;fill-opacity:1;fill-rule:nonzero;stroke:none" />
      <path
         d="m 596.34109,852.36182 c 0.43,1.52125 -0.0175,2.59875 -0.61375,3.7875 1.97875,-0.5175 3.225,-1.95375 3.4875,-3.13875 0.2725,-1.2325 -0.30375,-1.60375 -0.82625,-1.83125 -0.68875,-0.30375 -1.59625,0.47375 -2.0475,1.1825"
         id="path11751"
         style="fill:#000000;fill-opacity:1;fill-rule:nonzero;stroke:none" />
      <path
         d="m 592.77434,850.76869 c 0.1475,1.49375 0.495,2.26625 1.57125,3.42 -2.0275,-0.0387 -4.10125,-1.335 -4.3675,-2.52625 -0.27375,-1.23125 0.17125,-1.58 0.69375,-1.81375 0.68875,-0.305 1.64625,0.20875 2.1025,0.92"
         id="path11755"
         style="fill:#000000;fill-opacity:1;fill-rule:nonzero;stroke:none" />
      <path
         d="m 591.08983,852.96107 c 0.1175,1.48875 0.6825,2.3375 1.73625,3.515 -2.04625,-0.0338 -4.305,-1.49375 -4.54875,-2.6825 -0.24875,-1.23875 0.2025,-1.58125 0.7325,-1.8025 0.69375,-0.2875 1.64,0.2425 2.08,0.97"
         id="path11759"
         style="fill:#000000;fill-opacity:1;fill-rule:nonzero;stroke:none" />
      <path
         d="m 589.34321,854.90607 c 0.1,1.2775 0.585,2.00375 1.49375,3.01875 -1.76,-0.0275 -3.69875,-1.285 -3.90125,-2.305 -0.2125,-1.065 0.175,-1.3575 0.62625,-1.54375 0.59625,-0.2425 1.4075,0.20875 1.78125,0.83"
         id="path11763"
         style="fill:#000000;fill-opacity:1;fill-rule:nonzero;stroke:none" />
      <path
         d="m 594.46021,848.9807 c -0.0237,-0.98 -2.5875,-2.06125 -2.4575,0.2875 0.0462,0.74 1.69625,2.43 4.04,2.70625 0,0 -1.5375,-0.9875 -1.5825,-2.99375"
         id="path11767"
         style="fill:#ffffff;fill-opacity:1;fill-rule:nonzero;stroke:none" />
      <path
         d="m 592.57221,851.09445 c -0.025,-0.98 -2.595,-2.06125 -2.4575,0.2875 0.04,0.74 1.69,2.43 4.04125,2.70625 0,0 -1.53875,-0.9875 -1.58375,-2.99375"
         id="path11771"
         style="fill:#ffffff;fill-opacity:1;fill-rule:nonzero;stroke:none" />
      <path
         d="m 591.02671,851.2182 c -0.17375,0.0175 -0.30375,0.21 -0.30375,0.58125 0.62625,1.015 1.51625,1.50375 2.26,1.76375 -0.705,-0.6875 -1.37375,-1.37 -1.95625,-2.345"
         id="path11775"
         style="fill:#000000;fill-opacity:1;fill-rule:nonzero;stroke:none" />
      <path
         d="m 590.61059,851.56295 c 0.0388,-0.1925 0.12375,-0.32875 0.2875,-0.45625 -0.185,-0.1075 -0.37625,-0.37875 -0.42875,-0.63375 -0.15125,0.44875 -0.2125,0.73125 0.14125,1.09"
         id="path11779"
         style="fill:#000000;fill-opacity:1;fill-rule:nonzero;stroke:none" />
      <path
         d="m 590.92558,853.32245 c -0.0237,-0.9825 -2.59125,-2.07125 -2.4575,0.285 0.0412,0.7375 1.69125,2.43 4.0425,2.70625 0,0 -1.53875,-0.9875 -1.585,-2.99125"
         id="path11783"
         style="fill:#ffdd00;fill-opacity:1;fill-rule:nonzero;stroke:none" />
      <path
         d="m 589.40508,853.55795 c -0.1575,0.0125 -0.27625,0.185 -0.28125,0.53125 0.56875,0.93375 1.385,1.3825 2.0675,1.625 -0.64375,-0.635 -1.255,-1.2625 -1.78625,-2.15625"
         id="path11787"
         style="fill:#000000;fill-opacity:1;fill-rule:nonzero;stroke:none" />
      <path
         d="m 588.99371,853.90745 c 0.0325,-0.21 0.12375,-0.36125 0.2925,-0.50875 -0.2025,-0.105 -0.4225,-0.3925 -0.49,-0.67625 -0.1475,0.49875 -0.2025,0.80625 0.1975,1.185"
         id="path11791"
         style="fill:#000000;fill-opacity:1;fill-rule:nonzero;stroke:none" />
      <path
         d="m 590.92558,853.32245 c -0.0237,-0.9825 -2.59125,-2.07125 -2.4575,0.285 0.0412,0.7375 1.69125,2.43 4.0425,2.70625 0,0 -1.53875,-0.9875 -1.585,-2.99125"
         id="path11795"
         style="fill:#ffffff;fill-opacity:1;fill-rule:nonzero;stroke:none" />
      <path
         d="m 589.40508,853.55795 c -0.1575,0.0125 -0.27625,0.185 -0.28125,0.53125 0.56875,0.93375 1.385,1.3825 2.0675,1.625 -0.64375,-0.635 -1.255,-1.2625 -1.78625,-2.15625"
         id="path11799"
         style="fill:#000000;fill-opacity:1;fill-rule:nonzero;stroke:none" />
      <path
         d="m 588.99371,853.90745 c 0.0325,-0.21 0.12375,-0.36125 0.2925,-0.50875 -0.2025,-0.105 -0.4225,-0.3925 -0.49,-0.67625 -0.1475,0.49875 -0.2025,0.80625 0.1975,1.185"
         id="path11803"
         style="fill:#000000;fill-opacity:1;fill-rule:nonzero;stroke:none" />
      <path
         d="m 589.24809,855.26994 c -0.0188,-0.85125 -2.245,-1.78625 -2.13,0.25 0.0375,0.63875 1.46875,2.1075 3.505,2.34375 0,0 -1.3375,-0.8575 -1.375,-2.59375"
         id="path11807"
         style="fill:#ffffff;fill-opacity:1;fill-rule:nonzero;stroke:none" />
      <path
         d="m 587.94496,855.51245 c -0.135,0.025 -0.23,0.17625 -0.22,0.46875 0.52875,0.77 1.245,1.1275 1.83625,1.3 -0.57875,-0.51125 -1.12625,-1.025 -1.61625,-1.76875"
         id="path11811"
         style="fill:#000000;fill-opacity:1;fill-rule:nonzero;stroke:none" />
      <path
         d="m 587.53384,855.81195 c 0.0512,-0.17625 0.14625,-0.3 0.30875,-0.41125 -0.16875,-0.115 -0.32625,-0.3875 -0.35375,-0.64125 -0.185,0.41625 -0.265,0.67875 0.045,1.0525"
         id="path11815"
         style="fill:#000000;fill-opacity:1;fill-rule:nonzero;stroke:none" />
      <path
         d="m 596.62883,852.85882 c -0.2025,-0.9625 2.05625,-2.59875 2.4575,-0.27625 0.125,0.7275 -1.105,2.74375 -3.325,3.54375 0,0 1.27375,-1.30125 0.8675,-3.2675"
         id="path11819"
         style="fill:#ffffff;fill-opacity:1;fill-rule:nonzero;stroke:none" />
      <path
         d="m 597.93059,852.68532 c 0.175,-0.035 0.35,0.11875 0.445,0.4825 -0.34875,1.14375 -1.0925,1.8475 -1.75125,2.29 0.51375,-0.84625 0.99125,-1.68125 1.30625,-2.7725"
         id="path11823"
         style="fill:#000000;fill-opacity:1;fill-rule:nonzero;stroke:none" />
      <path
         d="m 598.21233,851.87207 -0.185,0.59125 c 0.2175,0.045 0.39875,0.23875 0.50125,0.49875 0.0738,-0.125 0.17875,-0.36625 0.1525,-0.57125 -0.1025,-0.2125 -0.24875,-0.38875 -0.46875,-0.51875"
         id="path11827"
         style="fill:#000000;fill-opacity:1;fill-rule:nonzero;stroke:none" />
      <path
         d="m 592.87658,849.1067 c -0.14,0.005 -0.255,0.1525 -0.27125,0.44875 0.4625,0.8425 1.15625,1.2675 1.74125,1.51 -0.535,-0.58 -1.04625,-1.155 -1.47,-1.95875"
         id="path11831"
         style="fill:#000000;fill-opacity:1;fill-rule:nonzero;stroke:none" />
      <path
         d="m 592.48183,849.37532 c 0.05,-0.1775 0.14625,-0.30875 0.31,-0.42125 -0.175,-0.1175 -0.3375,-0.395 -0.3725,-0.65375 -0.18,0.42875 -0.25875,0.70375 0.0625,1.075"
         id="path11835"
         style="fill:#000000;fill-opacity:1;fill-rule:nonzero;stroke:none" />
      <path
         d="m 603.27934,838.86557 1.80125,0.60125 0,-0.002 0.007,0 0,0.002 1.8075,-0.60125 3.06,1.38625 1.495,1.33625 1.985,1.04875 -1.4275,1.07 3.9225,-0.80125 -3.40875,1.31 0.78125,0.4575 -0.24625,0.34125 3.65625,0.1025 -3.4825,0.5275 0.24875,0.66125 2.38375,0.975 -2.38375,-0.2425 -0.11375,1.2675 1.74375,0.9575 -1.80625,-0.37125 -0.055,0.62625 -0.9075,0.235 0.37875,0.62625 -3.5,1.94 -1.85125,3.8375 -2.28,-0.43 -2.28875,0.43 -1.85375,-3.8375 -3.49875,-1.94 0.37875,-0.62625 -0.91,-0.235 -0.0562,-0.62625 -1.7975,0.37125 1.7425,-0.9575 -0.11875,-1.2675 -2.38375,0.2425 2.38375,-0.975 0.25375,-0.66125 -3.4825,-0.5275 3.6575,-0.1025 -0.255,-0.34125 0.785,-0.4575 -3.41,-1.31 3.9275,0.80125 -1.43125,-1.07 1.99,-1.04875 1.4925,-1.33625 3.06625,-1.38625 z"
         id="path11839"
         style="fill:#000000;fill-opacity:1;fill-rule:nonzero;stroke:none" />
      <path
         d="m 603.26758,855.54095 -2.01125,-3.37625 -3.14375,-1.9725 0.28625,-0.755 -1.0475,-0.2925 -0.0862,-0.52625 -1.48,0.35125 1.435,-0.6475 -0.24625,-1.5425 -1.805,0.275 1.77,-0.62 0.58125,-0.935 -2.57,-0.2875 2.6875,0.045 -0.22,-0.46125 0.8025,-0.61125 -2.61625,-0.8775 2.97375,0.71625 1,-1.78125 1.10875,-1.09875 2.48625,-1.28625 1.90875,0 0.008,0 1.91375,0 2.48,1.28625 1.1125,1.09875 0.9975,1.78125 3.105,-0.75625 -2.745,0.9175 0.8,0.61125 -0.21375,0.46125 2.64875,-0.04 -2.52,0.295 0.56375,0.9225 1.74625,0.6125 -1.78125,-0.2675 -0.24625,1.5425 1.47625,0.67 -1.52125,-0.37375 -0.085,0.52625 -1.04875,0.2925 0.28875,0.755 -3.145,1.9725 -2.0125,3.37625 -1.81375,0 -1.82125,0 z"
         id="path11843"
         style="fill:#ffffff;fill-opacity:1;fill-rule:nonzero;stroke:none" />
      <path
         d="m 606.30508,845.83007 1.57125,-1.325 0.36375,0.09 0.24,0.165 -1.17125,0.45125 -1.00375,0.61875 z"
         id="path11847"
         style="fill:#000000;fill-opacity:1;fill-rule:nonzero;stroke:none" />
      <path
         d="m 606.43471,846.41732 1.505,0.2425 1.3525,-0.0375 0.71625,-0.74 -0.25,-0.20875 -1.835,0.70625 -1.48875,0.0375 z"
         id="path11851"
         style="fill:#000000;fill-opacity:1;fill-rule:nonzero;stroke:none" />
      <path
         d="m 606.28246,846.2652 1.48125,-0.37125 1.46625,-0.59375 0.3725,0.27375 -1.775,0.515 -1.545,0.17625 z"
         id="path11855"
         style="fill:#000000;fill-opacity:1;fill-rule:nonzero;stroke:none" />
      <path
         d="m 606.13034,846.1012 1.27375,-0.65875 1.285,-0.53375 0.3775,0.28 -1.5175,0.43875 -1.41875,0.47375 z"
         id="path11859"
         style="fill:#000000;fill-opacity:1;fill-rule:nonzero;stroke:none" />
      <path
         d="m 603.79783,845.83007 -1.5725,-1.325 -0.3675,0.0975 -0.24,0.165 1.1725,0.44375 1.0075,0.61875 z"
         id="path11863"
         style="fill:#000000;fill-opacity:1;fill-rule:nonzero;stroke:none" />
      <path
         d="m 603.67408,846.41732 -1.52125,0.2425 -1.34875,-0.0325 -0.715,-0.745 0.24875,-0.20875 1.8375,0.71125 1.49875,0.0325 z"
         id="path11867"
         style="fill:#000000;fill-opacity:1;fill-rule:nonzero;stroke:none" />
      <path
         d="m 603.82033,846.2652 -1.4875,-0.36625 -1.46,-0.59875 -0.3775,0.27875 1.77625,0.51 1.54875,0.17625 z"
         id="path11871"
         style="fill:#000000;fill-opacity:1;fill-rule:nonzero;stroke:none" />
      <path
         d="m 603.97133,846.1012 -1.28,-0.65375 -1.2825,-0.53875 -0.3725,0.28 1.515,0.43875 1.42,0.47375 z"
         id="path11875"
         style="fill:#000000;fill-opacity:1;fill-rule:nonzero;stroke:none" />
      <path
         d="m 609.38796,841.63795 -2.73875,0.95875 0.83875,0.53 0.71,-0.22625 1.19,-1.2625 z"
         id="path11879"
         style="fill:#000000;fill-opacity:1;fill-rule:nonzero;stroke:none" />
      <path
         d="m 609.20721,841.59532 -2.575,0.88875 0.4175,-1.7025 0.14625,1.05375 2.01125,-0.24 z"
         id="path11883"
         style="fill:#000000;fill-opacity:1;fill-rule:nonzero;stroke:none" />
      <path
         d="m 608.39633,841.25532 -0.69875,-0.485 -0.43625,0.975 c 0,0 1.15625,-0.4775 1.135,-0.49"
         id="path11887"
         style="fill:#000000;fill-opacity:1;fill-rule:nonzero;stroke:none" />
      <path
         d="m 600.77671,841.64994 2.7375,0.95875 -0.84375,0.5275 -0.70375,-0.22375 -1.19,-1.2625 z"
         id="path11891"
         style="fill:#000000;fill-opacity:1;fill-rule:nonzero;stroke:none" />
      <path
         d="m 601.74096,841.2672 0.69875,-0.47875 0.43375,0.96875 c 0,0 -1.15,-0.475 -1.1325,-0.49"
         id="path11895"
         style="fill:#000000;fill-opacity:1;fill-rule:nonzero;stroke:none" />
      <path
         d="m 600.95146,841.60482 2.5875,0.89125 -0.4175,-1.7025 -0.15375,1.04875 -2.01625,-0.2375 z"
         id="path11899"
         style="fill:#000000;fill-opacity:1;fill-rule:nonzero;stroke:none" />
      <path
         d="m 607.27409,842.46795 c -0.0125,0.2425 0.17625,0.4375 0.4175,0.45625 0.24875,0.01 0.4625,-0.16875 0.47875,-0.41125 0.006,-0.1225 -0.0388,-0.23 -0.11875,-0.31625 l -0.7775,0.27125 z"
         id="path11903"
         style="fill:#ffdd00;fill-opacity:1;fill-rule:nonzero;stroke:none" />
      <path
         d="m 602.88933,842.47744 c 0.0238,0.25 -0.16875,0.44 -0.4225,0.45625 -0.24875,0.0125 -0.46125,-0.16875 -0.4725,-0.41125 -0.0113,-0.1225 0.0325,-0.23 0.1125,-0.31625 l 0.7825,0.27125 z"
         id="path11907"
         style="fill:#ffdd00;fill-opacity:1;fill-rule:nonzero;stroke:none" />
      <path
         d="m 602.41633,842.40607 c 0.0688,-0.008 0.11875,0.0375 0.12375,0.1025 0.006,0.06 -0.045,0.11125 -0.10625,0.11625 -0.0625,0.005 -0.11875,-0.045 -0.125,-0.10125 0,-0.0625 0.045,-0.1175 0.1075,-0.1175"
         id="path11911"
         style="fill:#000000;fill-opacity:1;fill-rule:nonzero;stroke:none" />
      <path
         d="m 607.72583,842.36095 c 0.0625,0 0.1175,0.045 0.12375,0.1075 0,0.0613 -0.0462,0.11125 -0.1125,0.11625 -0.0625,0 -0.11375,-0.0438 -0.11875,-0.10625 -0.008,-0.0625 0.0437,-0.1125 0.1075,-0.1175"
         id="path11915"
         style="fill:#000000;fill-opacity:1;fill-rule:nonzero;stroke:none" />
      <path
         d="m 605.08896,839.68107 0,0 -1.57875,-0.385 -2.82375,1.12 -1.69625,1.32875 -1.4775,0.875 1.095,1.1025 0.7725,-1.4475 0.94,-0.665 1.07125,-0.36 0.86125,-0.59625 2.35125,-0.17125 -1.18875,0.76375 0.405,1.34625 -1.1725,0.74875 -0.72125,-0.22 -0.99625,-1.145 -0.69875,2.06875 -0.22625,1.47125 1.58375,-1.145 0.5975,-0.19125 2.0275,0.9125 -0.68125,-0.77625 1.54875,0.58625 0,0.005 1.33625,-0.48875 -0.4625,0.67375 2.0225,-0.9075 0.5975,0.18625 1.585,1.145 -0.22625,-1.47125 -0.69875,-2.06125 -0.99625,1.1425 -0.7225,0.215 -1.165,-0.74375 0.40375,-1.35125 -1.1875,-0.76375 2.34375,0.17625 0.86125,0.59125 1.07125,0.3675 0.9425,0.6575 0.77125,1.4475 1.09375,-1.1025 -1.4775,-0.875 -1.69625,-1.32875 -2.8175,-1.12 -1.57125,0.385 z"
         id="path11919"
         style="fill:#f68b1f;fill-opacity:1;fill-rule:nonzero;stroke:none" />
      <path
         d="m 605.51696,840.59657 0.89625,0.79375 -0.18625,1.1325 -0.62,-0.18 0.50125,-0.83375 -0.59125,-0.9125 z"
         id="path11923"
         style="fill:#000000;fill-opacity:1;fill-rule:nonzero;stroke:none" />
      <path
         d="m 604.65971,840.59657 -0.895,0.79375 0.185,1.1325 0.62,-0.18 -0.50125,-0.83375 0.59125,-0.9125 z"
         id="path11927"
         style="fill:#000000;fill-opacity:1;fill-rule:nonzero;stroke:none" />
      <path
         d="m 606.66534,839.68832 1.86,0.8675 0.405,0.62125 1.55625,0.5725 -1.1275,-0.69125 -0.0613,-0.42875 -2.6325,-1.09875 -1.57625,0.5525 -1.64625,-0.5525 -2.6725,1.09875 -0.0625,0.42875 -1.125,0.69875 1.55375,-0.58 0.4075,-0.62125 1.90375,-0.88 1.63375,0.92125 1.58375,-0.90875 z"
         id="path11931"
         style="fill:#000000;fill-opacity:1;fill-rule:nonzero;stroke:none" />
      <path
         d="m 603.52671,843.47607 c 1.2575,0.35875 1.99,0.35 3.055,-0.0175 l -1.48875,0.79 -1.56625,-0.7725 z"
         id="path11935"
         style="fill:#000000;fill-opacity:1;fill-rule:nonzero;stroke:none" />
      <path
         d="m 603.86433,842.99107 c 0.9875,0.2825 1.55625,0.27125 2.39625,-0.0175 l -1.17875,0.63125 -1.2175,-0.61375 z"
         id="path11939"
         style="fill:#000000;fill-opacity:1;fill-rule:nonzero;stroke:none" />
      <path
         d="m 603.87146,842.86732 c 0.98,-0.2825 1.555,-0.27125 2.38875,0.0125 l -1.17125,-0.56375 -1.2175,0.55125 z"
         id="path11943"
         style="fill:#000000;fill-opacity:1;fill-rule:nonzero;stroke:none" />
      <path
         d="m 609.75883,844.06107 0.1475,1.0375 -1.245,-0.98 -0.5025,-0.23125 -0.395,-0.3375 1.31875,0.17375 0.2025,-1.05375 0.47375,1.39125 z"
         id="path11947"
         style="fill:#000000;fill-opacity:1;fill-rule:nonzero;stroke:none" />
      <path
         d="m 600.40471,844.0967 -0.1525,1.0375 1.24625,-0.99 0.5025,-0.22375 0.39375,-0.3425 -1.31875,0.18125 -0.1975,-1.06 -0.47375,1.3975 z"
         id="path11951"
         style="fill:#000000;fill-opacity:1;fill-rule:nonzero;stroke:none" />
      <path
         d="m 597.82483,842.62482 0.74875,0.81875 0.62625,-1.15625 -0.64875,0.23 0.86875,-0.85 -1.595,0.9575 z"
         id="path11955"
         style="fill:#ffffff;fill-opacity:1;fill-rule:nonzero;stroke:none" />
      <path
         d="m 612.36258,842.65332 -0.74875,0.81125 -0.63125,-1.15625 0.65375,0.2325 -0.86875,-0.85 1.595,0.9625 z"
         id="path11959"
         style="fill:#ffffff;fill-opacity:1;fill-rule:nonzero;stroke:none" />
      <path
         d="m 605.07696,846.39594 -2.4025,-2.91625 1.54625,1.0375 1.67375,0.0125 1.59875,-1.045 -2.41625,2.91125 z"
         id="path11963"
         style="fill:#000000;fill-opacity:1;fill-rule:nonzero;stroke:none" />
      <path
         d="m 610.38534,843.91595 0.5575,1.9425 -0.76125,1.00375 0.69875,0.53 -2.30375,1.855 1.40875,-1.79375 -0.66375,-0.2675 1.3,-1.37625 -0.23625,-1.89375 z"
         id="path11967"
         style="fill:#000000;fill-opacity:1;fill-rule:nonzero;stroke:none" />
      <path
         d="m 599.76871,843.89932 -0.5575,1.9425 0.76,1.00375 -0.7025,0.53 2.24125,1.8225 -1.34125,-1.76125 0.66375,-0.27 -1.30625,-1.375 0.2425,-1.8925 z"
         id="path11971"
         style="fill:#000000;fill-opacity:1;fill-rule:nonzero;stroke:none" />
      <path
         d="m 600.56271,841.88057 -1.38625,1.49375 -1.24625,3.01 0.14125,1.68375 1.6175,2.21 1.13125,1.29625 0.605,-0.2825 1.155,1.545 -1.25625,-3.325 -1.7475,-0.96875 -1.105,-1.76 0.64875,-0.59625 -0.21875,-0.79375 0.3925,-1.91625 1.26875,-1.59625 z"
         id="path11975"
         style="fill:#000000;fill-opacity:1;fill-rule:nonzero;stroke:none" />
      <path
         d="m 609.64709,841.83057 1.38625,1.48625 1.23875,3.01 -0.13875,1.69125 -1.61875,2.2075 -1.12625,1.2925 -0.60875,-0.2775 -1.15625,1.54 1.2625,-3.32375 1.7425,-0.97 1.10375,-1.75375 -0.6475,-0.60375 0.22,-0.79375 -0.395,-1.91625 -1.2625,-1.58875 z"
         id="path11979"
         style="fill:#000000;fill-opacity:1;fill-rule:nonzero;stroke:none" />
      <path
         d="m 605.09358,854.1262 -1.93375,0.73875 -1.3075,-6.9375 -0.69125,-0.88875 0.7775,0.3375 3.16,-0.98625 3.1625,0.98625 0.7775,-0.3375 -0.695,0.9125 -1.35125,6.91875 -1.89875,-0.74375 z"
         id="path11983"
         style="fill:#000000;fill-opacity:1;fill-rule:nonzero;stroke:none" />
      <path
         d="m 605.08171,852.1597 c -0.0275,-0.535 -0.1975,-1.88875 -0.32625,-2.4225 -0.435,-0.18125 -0.76625,-0.205 -1.27375,-0.0175 -0.47875,0.86875 -0.63,1.96625 -0.535,3.365 0.0837,-0.8725 0.0212,-1.56625 0.51875,-2.54125 0.16875,0.9 0.29125,2.125 0.5575,2.855 l 0.1975,-0.35375 0.31,0.37 0.28125,-0.38 0.265,0.315 0.2925,-0.31 0.27125,0.37 0.27625,-0.365 0.23625,0.395 c 0.23625,-0.77875 0.32625,-2.02375 0.44,-2.89125 0.38875,0.41125 0.58,1.36375 0.56375,2.59375 0.2075,-1.44875 -0.006,-1.78375 -0.38375,-3.4175 -0.55125,-0.185 -1.095,-0.185 -1.515,0.0125 -0.13125,0.53375 -0.14375,1.88375 -0.17625,2.4225"
         id="path11987"
         style="fill:#f04b3e;fill-opacity:1;fill-rule:nonzero;stroke:none" />
      <path
         d="m 603.33408,847.1782 -1.12625,0.37875 c 0.13625,1.27125 0.29875,2.49125 0.76,3.48 -0.005,-1.33375 -0.0163,-2.45125 0.36625,-3.85875"
         id="path11991"
         style="fill:#ffffff;fill-opacity:1;fill-rule:nonzero;stroke:none" />
      <path
         d="m 604.09021,854.10957 -0.88875,0.2825 c -0.08,-1.555 -0.1075,-2.4575 0.22375,-3.30625 0.1525,1.07 0.18625,1.9325 0.665,3.02375"
         id="path11995"
         style="fill:#ffffff;fill-opacity:1;fill-rule:nonzero;stroke:none" />
      <path
         d="m 606.04596,854.10232 0.895,0.2825 c 0.0738,-1.555 0.10875,-2.455 -0.23,-3.30625 -0.1525,1.07 -0.185,1.9325 -0.665,3.02375"
         id="path11999"
         style="fill:#ffffff;fill-opacity:1;fill-rule:nonzero;stroke:none" />
      <path
         d="m 605.08896,853.86707 -0.83,0.1975 -0.17375,-0.46625 0.145,-0.2875 0.2825,0.33 0.29875,-0.3375 0.27,0.3425 0.27125,-0.3475 0.26,0.36625 0.2975,-0.35375 0.1475,0.32625 -0.1525,0.40625 -0.81625,-0.17625 z"
         id="path12003"
         style="fill:#ffffff;fill-opacity:1;fill-rule:nonzero;stroke:none" />
      <path
         d="m 606.82946,847.21157 1.1225,0.37875 c -0.135,1.27875 -0.3,2.495 -0.75625,3.4825 0.005,-1.33125 0.0163,-2.44625 -0.36625,-3.86125"
         id="path12007"
         style="fill:#ffffff;fill-opacity:1;fill-rule:nonzero;stroke:none" />
      <path
         d="m 604.80596,846.06782 -2.13,-2.5875 1.545,1.0375 1.675,0.0113 1.5975,-1.04375 -2.15625,2.595 0,0.41625 -0.53125,0 0,-0.42875 z"
         id="path12011"
         style="fill:#000000;fill-opacity:1;fill-rule:nonzero;stroke:none" />
      <path
         d="m 603.89408,844.71495 0.2975,0.37875 0.4225,0.1525 0.46875,0.82125 0.48375,-0.82125 0.445,-0.1525 0.2425,-0.37875 -2.36,0 z"
         id="path12015"
         style="fill:#ffffff;fill-opacity:1;fill-rule:nonzero;stroke:none" />
      <path
         d="m 605.06033,847.5682 -0.2825,-0.135 -0.23125,0.1225 -0.23625,-0.1225 -0.20375,0.1225 -0.23625,-0.1875 -0.34875,0.205 c -0.0337,0.095 -0.0512,0.21375 -0.0512,0.3325 l 0,0.045 c 0.006,0.25875 0.0625,0.52375 0.11375,0.6425 0.14,-0.37875 0.31625,-0.6875 0.55125,-0.935 l 0.18625,0.51125 0.25375,-0.51125 0.22,0.52875 0.2575,-0.52375 0.008,0.005 0,-0.1 z m 0,-0.16375 -0.27125,-0.13625 -0.2425,0.13625 -0.21875,-0.16 -0.22125,0.1525 -0.20125,-0.2425 -0.39125,0.25375 -0.0438,-0.27125 0.7675,-0.24 0.8225,0.2575 0,0.25 z m 0,0.26375 0,-0.1 0.0113,0.005 0.22375,-0.12375 0.25375,0.12375 0.1975,-0.13125 0.2375,0.12625 0.25375,-0.12625 0.36125,0.13625 c 0.1075,0.31125 0.0163,0.83375 -0.0575,1.015 -0.14625,-0.38375 -0.32125,-0.6875 -0.5575,-0.935 l -0.18125,0.51125 -0.25375,-0.51125 -0.2175,0.52875 -0.25375,-0.52375 -0.0175,0.005 0,0.008 0,-0.008 z m 0.0275,-0.51375 0.795,-0.26375 0.79375,0.27125 -0.0675,0.25375 -0.39375,-0.20875 -0.225,0.1975 -0.1975,-0.18625 -0.25375,0.1975 -0.2075,-0.1825 -0.25375,0.1825 -0.0175,-0.0113 0,-0.25 0.0275,0 z"
         id="path12019"
         style="fill:#ffffff;fill-opacity:1;fill-rule:nonzero;stroke:none" />
      <path
         d="m 595.52546,864.16995 -0.02,0.085 -0.1825,0.59125 c 0.006,-0.005 0.01,-0.005 0.0163,-0.005 l -0.04,0.1425 c 3.0775,-0.64875 6.7975,-0.66375 9.86625,-0.81375 l -6.1675,0 c 3.32625,-0.46125 6.4775,-0.51125 10.22875,-0.6825 l -6.48375,-0.004 c 0.1275,-0.0125 0.25625,-0.0225 0.38375,-0.0325 3.78125,-0.28375 7.5525,-0.36625 11.84125,-0.50625 l -19.08875,0 -0.31875,1.1175 -0.03,0.1075 -0.005,0 z"
         id="path12023"
         style="fill:#000000;fill-opacity:1;fill-rule:nonzero;stroke:none" />
      <path
         d="m 595.24471,863.93457 -0.0263,0.0825 -0.175,0.59375 c 0.004,0 0.01,0 0.0138,-0.005 l -0.0388,0.1425 c 3.0775,-0.64875 6.7975,-0.66625 9.87125,-0.81375 l -6.1725,0 c 3.325,-0.45625 6.4775,-0.51125 10.22875,-0.6825 l -6.48375,-0.004 c 0.12875,-0.0125 0.25625,-0.0225 0.38375,-0.0325 3.78125,-0.28375 7.5525,-0.36875 11.8425,-0.50625 l -19.09,0 -0.32,1.1225 -0.0287,0.1025 -0.005,0 z"
         id="path12027"
         style="fill:#f68b1f;fill-opacity:1;fill-rule:nonzero;stroke:none" />
      <path
         d="m 604.10933,856.61095 -0.14375,0.40875 -1.45875,0 c -0.2,0 -0.38625,0.0525 -0.55875,0.155 -0.17375,0.1025 -0.30625,0.235 -0.4,0.39875 l 2.22125,0 -0.1425,0.4 -2.21375,0 c -0.005,0.18125 0.0487,0.31875 0.16,0.41375 0.10375,0.09 0.24625,0.1375 0.42375,0.14 l 1.43,0 -0.1425,0.40375 -1.5525,0 c -0.34375,0 -0.63375,-0.0625 -0.86875,-0.1825 -0.28,-0.1475 -0.42125,-0.35375 -0.42125,-0.625 0,-0.1 0.0225,-0.2075 0.0625,-0.32125 0.17375,-0.49 0.56875,-0.835 1.18625,-1.03375 0.31875,-0.105 0.615,-0.1575 0.88625,-0.1575 l 1.5325,0 z"
         id="path12031"
         style="fill:none;stroke:#000000;stroke-width:0.02453593;stroke-linecap:butt;stroke-linejoin:miter;stroke-miterlimit:4;stroke-opacity:1;stroke-dasharray:none" />
      <path
         d="m 604.03546,856.4327 -0.14,0.40875 -1.46,0 c -0.2,0 -0.38625,0.0525 -0.56,0.155 -0.17375,0.1025 -0.30625,0.235 -0.4,0.39625 l 2.2225,0 -0.14375,0.405 -2.2125,0 c -0.006,0.17625 0.0475,0.31375 0.16,0.41125 0.105,0.09 0.245,0.1375 0.42375,0.14 l 1.42875,0 -0.14125,0.40125 -1.555,0 c -0.34125,0 -0.6325,-0.0587 -0.8675,-0.1825 -0.28,-0.145 -0.42,-0.35375 -0.42,-0.6225 0,-0.1 0.0213,-0.2075 0.0625,-0.3225 0.1725,-0.48875 0.56875,-0.83375 1.18625,-1.0325 0.3175,-0.105 0.615,-0.1575 0.885,-0.1575 l 1.53125,0 z"
         id="path12035"
         style="fill:#ffffff;fill-opacity:1;fill-rule:nonzero;stroke:none" />
      <path
         d="m 607.87208,856.61582 -0.14625,0.40125 -1.64125,0 c -0.11125,0 -0.2175,0.0125 -0.32375,0.0362 -0.1975,0.045 -0.3125,0.11875 -0.35,0.22625 -0.01,0.02 -0.015,0.0425 -0.015,0.0637 0,0.0863 0.0675,0.1475 0.205,0.185 0.0925,0.0287 0.1975,0.0412 0.3175,0.0412 l 0.44,0 c 0.2425,0 0.4625,0.0338 0.65625,0.095 0.27375,0.0888 0.4125,0.22375 0.4125,0.40375 0,0.0475 -0.008,0.0975 -0.025,0.15 -0.1,0.27875 -0.3875,0.4775 -0.86125,0.6025 -0.2425,0.065 -0.4725,0.1025 -0.68875,0.10625 l -1.93625,0 0.14125,-0.4025 1.6525,0 c 0.1125,0 0.22,-0.0113 0.3275,-0.035 0.195,-0.045 0.31125,-0.12125 0.35,-0.2275 0.009,-0.0225 0.0113,-0.0462 0.0113,-0.0625 0,-0.0862 -0.0688,-0.1475 -0.20375,-0.18875 -0.0925,-0.025 -0.19625,-0.04 -0.315,-0.04 l -0.45375,0 c -0.24125,0 -0.45875,-0.03 -0.65375,-0.095 -0.275,-0.09 -0.4125,-0.225 -0.4125,-0.40375 0,-0.045 0.009,-0.095 0.0275,-0.15 0.0975,-0.2775 0.38375,-0.47875 0.85625,-0.60125 0.2425,-0.065 0.4725,-0.1 0.69125,-0.105 l 1.9375,0 z"
         id="path12039"
         style="fill:#000000;fill-opacity:1;fill-rule:nonzero;stroke:none" />
      <path
         d="m 607.87208,856.61582 -0.14625,0.40125 -1.64125,0 c -0.11125,0 -0.2175,0.0125 -0.32375,0.0362 -0.1975,0.045 -0.3125,0.11875 -0.35,0.22625 -0.01,0.02 -0.015,0.0425 -0.015,0.0637 0,0.0863 0.0675,0.1475 0.205,0.185 0.0925,0.0287 0.1975,0.0412 0.3175,0.0412 l 0.44,0 c 0.2425,0 0.4625,0.0338 0.65625,0.095 0.27375,0.0888 0.4125,0.22375 0.4125,0.40375 0,0.0475 -0.008,0.0975 -0.025,0.15 -0.1,0.27875 -0.3875,0.4775 -0.86125,0.6025 -0.2425,0.065 -0.4725,0.1025 -0.68875,0.10625 l -1.93625,0 0.14125,-0.4025 1.6525,0 c 0.1125,0 0.22,-0.0113 0.3275,-0.035 0.195,-0.045 0.31125,-0.12125 0.35,-0.2275 0.009,-0.0225 0.0113,-0.0462 0.0113,-0.0625 0,-0.0862 -0.0688,-0.1475 -0.20375,-0.18875 -0.0925,-0.025 -0.19625,-0.04 -0.315,-0.04 l -0.45375,0 c -0.24125,0 -0.45875,-0.03 -0.65375,-0.095 -0.275,-0.09 -0.4125,-0.225 -0.4125,-0.40375 0,-0.045 0.009,-0.095 0.0275,-0.15 0.0975,-0.2775 0.38375,-0.47875 0.85625,-0.60125 0.2425,-0.065 0.4725,-0.1 0.69125,-0.105 l 1.9375,0 z"
         id="path12043"
         style="fill:none;stroke:#000000;stroke-width:0.02453593;stroke-linecap:butt;stroke-linejoin:miter;stroke-miterlimit:4;stroke-opacity:1;stroke-dasharray:none" />
      <path
         d="m 607.69021,856.45407 -0.145,0.40125 -1.64125,0 c -0.1125,0 -0.22,0.0125 -0.325,0.0362 -0.1975,0.045 -0.31375,0.12125 -0.34875,0.22875 -0.01,0.02 -0.015,0.04 -0.015,0.0612 0,0.0863 0.0663,0.1475 0.2025,0.1875 0.0937,0.0263 0.19875,0.0388 0.31875,0.0388 l 0.44125,0 c 0.2425,0 0.46125,0.0337 0.65625,0.095 0.2725,0.0888 0.41125,0.22125 0.41125,0.40375 0,0.045 -0.008,0.0975 -0.0238,0.1525 -0.1025,0.27625 -0.3875,0.475 -0.86375,0.6 -0.24125,0.065 -0.47125,0.1025 -0.6875,0.10625 l -1.93625,0 0.1425,-0.4025 1.6525,0 c 0.11,0 0.22,-0.0113 0.3275,-0.035 0.19375,-0.045 0.31,-0.12125 0.35,-0.2275 0.008,-0.0225 0.01,-0.0412 0.01,-0.0625 0,-0.0863 -0.0675,-0.1475 -0.2025,-0.18875 -0.0925,-0.025 -0.1975,-0.0375 -0.31375,-0.0375 l -0.4575,0 c -0.24,0 -0.45875,-0.0325 -0.6525,-0.095 -0.27375,-0.0925 -0.4125,-0.225 -0.4125,-0.40625 0,-0.045 0.01,-0.095 0.0275,-0.15 0.0987,-0.275 0.38375,-0.47625 0.855,-0.59875 0.245,-0.0675 0.475,-0.1025 0.6925,-0.1075 l 1.9375,0 z"
         id="path12047"
         style="fill:#ffffff;fill-opacity:1;fill-rule:nonzero;stroke:none" />
      <path
         d="m 607.69021,856.45407 -0.145,0.40125 -1.64125,0 c -0.1125,0 -0.22,0.0125 -0.325,0.0362 -0.1975,0.045 -0.31375,0.12125 -0.34875,0.22875 -0.01,0.02 -0.015,0.04 -0.015,0.0612 0,0.0863 0.0663,0.1475 0.2025,0.1875 0.0937,0.0263 0.19875,0.0388 0.31875,0.0388 l 0.44125,0 c 0.2425,0 0.46125,0.0337 0.65625,0.095 0.2725,0.0888 0.41125,0.22125 0.41125,0.40375 0,0.045 -0.008,0.0975 -0.0238,0.1525 -0.1025,0.27625 -0.3875,0.475 -0.86375,0.6 -0.24125,0.065 -0.47125,0.1025 -0.6875,0.10625 l -1.93625,0 0.1425,-0.4025 1.6525,0 c 0.11,0 0.22,-0.0113 0.3275,-0.035 0.19375,-0.045 0.31,-0.12125 0.35,-0.2275 0.008,-0.0225 0.01,-0.0412 0.01,-0.0625 0,-0.0863 -0.0675,-0.1475 -0.2025,-0.18875 -0.0925,-0.025 -0.1975,-0.0375 -0.31375,-0.0375 l -0.4575,0 c -0.24,0 -0.45875,-0.0325 -0.6525,-0.095 -0.27375,-0.0925 -0.4125,-0.225 -0.4125,-0.40625 0,-0.045 0.01,-0.095 0.0275,-0.15 0.0987,-0.275 0.38375,-0.47625 0.855,-0.59875 0.245,-0.0675 0.475,-0.1025 0.6925,-0.1075 l 1.9375,0 z"
         id="path12051"
         style="fill:none;stroke:#ffffff;stroke-width:0.02453593;stroke-linecap:butt;stroke-linejoin:miter;stroke-miterlimit:4;stroke-opacity:1;stroke-dasharray:none" />
      <path
         d="m 608.24309,856.56582 -0.155,0.42875 1.28625,0 -0.72875,1.98625 0.9875,0 0.7275,-1.98625 1.29375,0 0.15375,-0.42875 -3.565,0 z"
         id="path12055"
         style="fill:#000000;fill-opacity:1;fill-rule:nonzero;stroke:none" />
      <path
         d="m 608.24309,856.56582 -0.155,0.42875 1.28625,0 -0.72875,1.98625 0.9875,0 0.7275,-1.98625 1.29375,0 0.15375,-0.42875 -3.565,0 z"
         id="path12059"
         style="fill:none;stroke:#000000;stroke-width:0.01023684;stroke-linecap:butt;stroke-linejoin:miter;stroke-miterlimit:4;stroke-opacity:1;stroke-dasharray:none" />
      <path
         d="m 608.07059,856.4017 -0.155,0.42875 1.2825,0 -0.72625,1.98125 0.985,0 0.7275,-1.98125 1.29,0 0.1525,-0.42875 -3.55625,0 z"
         id="path12063"
         style="fill:#ffffff;fill-opacity:1;fill-rule:nonzero;stroke:none" />
      <path
         d="m 608.07059,856.4017 -0.155,0.42875 1.2825,0 -0.72625,1.98125 0.985,0 0.7275,-1.98125 1.29,0 0.1525,-0.42875 -3.55625,0 z"
         id="path12067"
         style="fill:none;stroke:#ffffff;stroke-width:0.01023684;stroke-linecap:butt;stroke-linejoin:miter;stroke-miterlimit:4;stroke-opacity:1;stroke-dasharray:none" />
      <path
         d="m 599.68421,856.5302 -0.72875,2.05 -0.86625,0 0.73875,-2.05 -0.99,0 -0.72875,2.05 c -0.41875,-0.05 -0.6325,-0.22375 -0.6325,-0.52625 0,-0.0875 0.02,-0.1825 0.0587,-0.28875 l 0.4375,-1.235 -0.97125,0 -0.44875,1.2525 c -0.0488,0.12625 -0.0675,0.24375 -0.0675,0.35 0,0.29 0.1475,0.51625 0.44625,0.68 0.25375,0.135 0.565,0.205 0.935,0.205 l 2.915,0 0.885,-2.4875 -0.9825,0 z"
         id="path12071"
         style="fill:#000000;fill-opacity:1;fill-rule:nonzero;stroke:none" />
      <path
         d="m 599.59858,856.36369 -0.72875,2.0525 -0.865,0 0.73875,-2.0525 -0.99125,0 -0.72875,2.0525 c -0.41875,-0.0488 -0.6325,-0.22375 -0.6325,-0.52625 0,-0.085 0.02,-0.1825 0.0588,-0.28875 l 0.43625,-1.2375 -0.97,0 -0.44875,1.2525 c -0.0487,0.12875 -0.0675,0.245 -0.0675,0.35 0,0.295 0.1475,0.51625 0.44625,0.6825 0.25375,0.135 0.565,0.205 0.935,0.205 l 2.915,0 0.885,-2.49 -0.9825,0 z"
         id="path12075"
         style="fill:#ffffff;fill-opacity:1;fill-rule:nonzero;stroke:none" />
      <path
         d="m 615.32521,856.61582 -0.1475,0.40125 -1.64125,0 c -0.11125,0 -0.21875,0.015 -0.32375,0.0362 -0.19625,0.045 -0.31375,0.12125 -0.35,0.22875 -0.01,0.0225 -0.015,0.0425 -0.015,0.0638 0,0.0838 0.0688,0.145 0.205,0.185 0.0925,0.0263 0.1975,0.0413 0.3175,0.0413 l 0.44,0 c 0.24375,0 0.46375,0.0312 0.6575,0.095 0.275,0.0863 0.41125,0.22375 0.41125,0.40375 0,0.0475 -0.008,0.0975 -0.0263,0.15 -0.0987,0.27875 -0.38625,0.4775 -0.86,0.60125 -0.2425,0.0637 -0.47125,0.1025 -0.68875,0.105 l -1.93625,0 0.1425,-0.4025 1.65125,0 c 0.11125,0 0.22125,-0.009 0.3275,-0.035 0.19375,-0.045 0.3125,-0.12 0.35,-0.225 0.009,-0.025 0.0112,-0.0438 0.0112,-0.065 0,-0.0862 -0.0687,-0.145 -0.20375,-0.18625 -0.0925,-0.0275 -0.1975,-0.04 -0.31375,-0.04 l -0.45625,0 c -0.24125,0 -0.4575,-0.03 -0.6525,-0.095 -0.275,-0.0875 -0.4125,-0.2225 -0.4125,-0.40375 0,-0.0475 0.009,-0.0975 0.0263,-0.15 0.0987,-0.2775 0.385,-0.47875 0.8575,-0.60125 0.2425,-0.0675 0.47375,-0.1025 0.69125,-0.1075 l 1.93875,0 z"
         id="path12079"
         style="fill:#000000;fill-opacity:1;fill-rule:nonzero;stroke:none" />
      <path
         d="m 615.32521,856.61582 -0.1475,0.40125 -1.64125,0 c -0.11125,0 -0.21875,0.015 -0.32375,0.0362 -0.19625,0.045 -0.31375,0.12125 -0.35,0.22875 -0.01,0.0225 -0.015,0.0425 -0.015,0.0638 0,0.0838 0.0688,0.145 0.205,0.185 0.0925,0.0263 0.1975,0.0413 0.3175,0.0413 l 0.44,0 c 0.24375,0 0.46375,0.0312 0.6575,0.095 0.275,0.0863 0.41125,0.22375 0.41125,0.40375 0,0.0475 -0.008,0.0975 -0.0263,0.15 -0.0987,0.27875 -0.38625,0.4775 -0.86,0.60125 -0.2425,0.0637 -0.47125,0.1025 -0.68875,0.105 l -1.93625,0 0.1425,-0.4025 1.65125,0 c 0.11125,0 0.22125,-0.009 0.3275,-0.035 0.19375,-0.045 0.3125,-0.12 0.35,-0.225 0.009,-0.025 0.0112,-0.0438 0.0112,-0.065 0,-0.0862 -0.0687,-0.145 -0.20375,-0.18625 -0.0925,-0.0275 -0.1975,-0.04 -0.31375,-0.04 l -0.45625,0 c -0.24125,0 -0.4575,-0.03 -0.6525,-0.095 -0.275,-0.0875 -0.4125,-0.2225 -0.4125,-0.40375 0,-0.0475 0.009,-0.0975 0.0263,-0.15 0.0987,-0.2775 0.385,-0.47875 0.8575,-0.60125 0.2425,-0.0675 0.47375,-0.1025 0.69125,-0.1075 l 1.93875,0 z"
         id="path12083"
         style="fill:none;stroke:#000000;stroke-width:0.02453593;stroke-linecap:butt;stroke-linejoin:miter;stroke-miterlimit:4;stroke-opacity:1;stroke-dasharray:none" />
      <path
         d="m 615.14221,856.45645 -0.145,0.40125 -1.6425,0 c -0.1125,0 -0.21875,0.0125 -0.32375,0.0362 -0.1975,0.0437 -0.31375,0.11875 -0.34875,0.22625 -0.01,0.0225 -0.0163,0.045 -0.0163,0.0638 0,0.0838 0.0687,0.145 0.205,0.185 0.0925,0.0263 0.1975,0.0412 0.3175,0.0412 l 0.44,0 c 0.24375,0 0.4625,0.0312 0.65625,0.0925 0.275,0.0912 0.4125,0.22375 0.4125,0.40625 0,0.0475 -0.006,0.0975 -0.025,0.15 -0.10125,0.27625 -0.3875,0.4775 -0.8625,0.6025 -0.24125,0.065 -0.47125,0.1025 -0.68875,0.10375 l -1.935,0 0.1425,-0.4025 1.6525,0 c 0.11,0 0.22,-0.009 0.32625,-0.035 0.19375,-0.0425 0.31125,-0.11875 0.35125,-0.2275 0.008,-0.0225 0.01,-0.0412 0.01,-0.06 0,-0.0875 -0.0675,-0.15 -0.20375,-0.18875 -0.0912,-0.025 -0.19625,-0.04 -0.3125,-0.04 l -0.4575,0 c -0.24,0 -0.45875,-0.03 -0.65375,-0.0925 -0.2725,-0.0925 -0.41125,-0.225 -0.41125,-0.40625 0,-0.045 0.01,-0.0975 0.0275,-0.15 0.0975,-0.2775 0.38375,-0.47875 0.855,-0.60125 0.24375,-0.0675 0.475,-0.1 0.69375,-0.105 l 1.93625,0 z"
         id="path12087"
         style="fill:#ffffff;fill-opacity:1;fill-rule:nonzero;stroke:none" />
      <path
         d="m 615.14221,856.45645 -0.145,0.40125 -1.6425,0 c -0.1125,0 -0.21875,0.0125 -0.32375,0.0362 -0.1975,0.0437 -0.31375,0.11875 -0.34875,0.22625 -0.01,0.0225 -0.0163,0.045 -0.0163,0.0638 0,0.0838 0.0687,0.145 0.205,0.185 0.0925,0.0263 0.1975,0.0412 0.3175,0.0412 l 0.44,0 c 0.24375,0 0.4625,0.0312 0.65625,0.0925 0.275,0.0912 0.4125,0.22375 0.4125,0.40625 0,0.0475 -0.006,0.0975 -0.025,0.15 -0.10125,0.27625 -0.3875,0.4775 -0.8625,0.6025 -0.24125,0.065 -0.47125,0.1025 -0.68875,0.10375 l -1.935,0 0.1425,-0.4025 1.6525,0 c 0.11,0 0.22,-0.009 0.32625,-0.035 0.19375,-0.0425 0.31125,-0.11875 0.35125,-0.2275 0.008,-0.0225 0.01,-0.0412 0.01,-0.06 0,-0.0875 -0.0675,-0.15 -0.20375,-0.18875 -0.0912,-0.025 -0.19625,-0.04 -0.3125,-0.04 l -0.4575,0 c -0.24,0 -0.45875,-0.03 -0.65375,-0.0925 -0.2725,-0.0925 -0.41125,-0.225 -0.41125,-0.40625 0,-0.045 0.01,-0.0975 0.0275,-0.15 0.0975,-0.2775 0.38375,-0.47875 0.855,-0.60125 0.24375,-0.0675 0.475,-0.1 0.69375,-0.105 l 1.93625,0 z"
         id="path12091"
         style="fill:none;stroke:#ffffff;stroke-width:0.02453593;stroke-linecap:butt;stroke-linejoin:miter;stroke-miterlimit:4;stroke-opacity:1;stroke-dasharray:none" />
      <path
         d="m 599.98734,859.82807 -0.82375,2.3175 -0.91375,0 0.82375,-2.31 0.91375,-0.007 z"
         id="path12095"
         style="fill:#000000;fill-opacity:1;fill-rule:nonzero;stroke:none" />
      <path
         d="m 603.78346,859.82807 -0.1425,0.40875 -1.6075,0 c -0.12875,0 -0.2725,0.0338 -0.43,0.1 -0.3025,0.12375 -0.5075,0.34 -0.61625,0.64375 -0.0325,0.0925 -0.0488,0.18375 -0.0488,0.27 0,0.14875 0.0512,0.27125 0.15375,0.36125 0.10125,0.09 0.24375,0.135 0.42625,0.135 l 0.67125,0 0.34125,-0.95625 0.91,0 -0.4775,1.355 -1.71,-0.003 c -0.34625,0 -0.635,-0.0625 -0.86875,-0.18875 -0.2725,-0.15 -0.40875,-0.36 -0.40875,-0.63 0,-0.1075 0.0225,-0.22125 0.0662,-0.34375 0.16625,-0.4725 0.55875,-0.805 1.175,-1 0.31625,-0.1 0.61375,-0.1525 0.885,-0.1525 l 1.68125,0 z"
         id="path12099"
         style="fill:#000000;fill-opacity:1;fill-rule:nonzero;stroke:none" />
      <path
         d="m 607.45009,859.82807 -0.14375,0.40875 -1.45875,0 c -0.2,0 -0.38625,0.0525 -0.55875,0.155 -0.175,0.1025 -0.3075,0.235 -0.4,0.39875 l 2.22125,0 -0.1425,0.4 -2.21375,0 c -0.005,0.18125 0.0488,0.31625 0.16,0.41375 0.10375,0.09 0.24625,0.1375 0.4225,0.14 l 1.43125,0 -0.1425,0.40125 -1.55375,0 c -0.34375,0 -0.63375,-0.06 -0.86875,-0.1825 -0.27875,-0.145 -0.42,-0.35375 -0.42,-0.6225 0,-0.1 0.0225,-0.2075 0.0625,-0.32125 0.17375,-0.49 0.56875,-0.835 1.18625,-1.03375 0.3175,-0.105 0.615,-0.1575 0.88625,-0.1575 l 1.5325,0 z"
         id="path12103"
         style="fill:#000000;fill-opacity:1;fill-rule:nonzero;stroke:none" />
      <path
         d="m 610.08458,860.54145 c 0,-0.1 -0.0525,-0.1775 -0.16,-0.23 -0.0862,-0.05 -0.1925,-0.0738 -0.32125,-0.0738 l -0.805,0 -0.29125,0.8175 0.83125,0 c 0.0975,0 0.205,-0.0175 0.32,-0.0525 0.2125,-0.0688 0.34625,-0.1825 0.4025,-0.34 0.0163,-0.0437 0.0237,-0.0838 0.0237,-0.12125 m -0.002,0.80625 0.40875,0.79875 -0.8975,0 -0.3525,-0.69 -0.875,0 -0.25,0.69 -0.91,0 0.82,-2.31125 1.91125,0 c 0.27375,0 0.52,0.0375 0.73375,0.1175 0.29375,0.10375 0.44,0.2625 0.44,0.4725 0,0.0612 -0.0125,0.12625 -0.0375,0.19 -0.11625,0.33 -0.4475,0.575 -0.99125,0.7325"
         id="path12107"
         style="fill:#000000;fill-opacity:1;fill-rule:nonzero;stroke:none" />
      <path
         d="m 599.98734,859.82807 -0.82375,2.3175 -0.91375,0 0.82375,-2.31 0.91375,-0.007 z"
         id="path12111"
         style="fill:none;stroke:#000000;stroke-width:0.02453593;stroke-linecap:butt;stroke-linejoin:miter;stroke-miterlimit:4;stroke-opacity:1;stroke-dasharray:none" />
      <path
         d="m 603.78346,859.82807 -0.1425,0.40875 -1.6075,0 c -0.12875,0 -0.2725,0.0338 -0.43,0.1 -0.3025,0.12375 -0.5075,0.34 -0.61625,0.64375 -0.0325,0.0925 -0.0488,0.18375 -0.0488,0.27 0,0.14875 0.0512,0.27125 0.15375,0.36125 0.10125,0.09 0.24375,0.135 0.42625,0.135 l 0.67125,0 0.34125,-0.95625 0.91,0 -0.4775,1.355 -1.71,-0.003 c -0.34625,0 -0.635,-0.0625 -0.86875,-0.18875 -0.2725,-0.15 -0.40875,-0.36 -0.40875,-0.63 0,-0.1075 0.0225,-0.22125 0.0662,-0.34375 0.16625,-0.4725 0.55875,-0.805 1.175,-1 0.31625,-0.1 0.61375,-0.1525 0.885,-0.1525 l 1.68125,0 z"
         id="path12115"
         style="fill:none;stroke:#000000;stroke-width:0.02453593;stroke-linecap:butt;stroke-linejoin:miter;stroke-miterlimit:4;stroke-opacity:1;stroke-dasharray:none" />
      <path
         d="m 607.45009,859.82807 -0.14375,0.40875 -1.45875,0 c -0.2,0 -0.38625,0.0525 -0.55875,0.155 -0.175,0.1025 -0.3075,0.235 -0.4,0.39875 l 2.22125,0 -0.1425,0.4 -2.21375,0 c -0.005,0.18125 0.0488,0.31625 0.16,0.41375 0.10375,0.09 0.24625,0.1375 0.4225,0.14 l 1.43125,0 -0.1425,0.40125 -1.55375,0 c -0.34375,0 -0.63375,-0.06 -0.86875,-0.1825 -0.27875,-0.145 -0.42,-0.35375 -0.42,-0.6225 0,-0.1 0.0225,-0.2075 0.0625,-0.32125 0.17375,-0.49 0.56875,-0.835 1.18625,-1.03375 0.3175,-0.105 0.615,-0.1575 0.88625,-0.1575 l 1.5325,0 z"
         id="path12119"
         style="fill:none;stroke:#000000;stroke-width:0.02453593;stroke-linecap:butt;stroke-linejoin:miter;stroke-miterlimit:4;stroke-opacity:1;stroke-dasharray:none" />
      <path
         d="m 610.08458,860.54145 c 0,-0.1 -0.0525,-0.1775 -0.16,-0.23 -0.0862,-0.05 -0.1925,-0.0738 -0.32125,-0.0738 l -0.805,0 -0.29125,0.8175 0.83125,0 c 0.0975,0 0.205,-0.0175 0.32,-0.0525 0.2125,-0.0688 0.34625,-0.1825 0.4025,-0.34 0.0163,-0.0437 0.0237,-0.0838 0.0237,-0.12125 z m -0.002,0.80625 0.40875,0.79875 -0.8975,0 -0.3525,-0.69 -0.875,0 -0.25,0.69 -0.91,0 0.82,-2.31125 1.91125,0 c 0.27375,0 0.52,0.0375 0.73375,0.1175 0.29375,0.10375 0.44,0.2625 0.44,0.4725 0,0.0612 -0.0125,0.12625 -0.0375,0.19 -0.11625,0.33 -0.4475,0.575 -0.99125,0.7325 z"
         id="path12123"
         style="fill:none;stroke:#000000;stroke-width:0.02453593;stroke-linecap:butt;stroke-linejoin:miter;stroke-miterlimit:4;stroke-opacity:1;stroke-dasharray:none" />
      <path
         d="m 599.80533,859.66632 -0.8225,2.3175 -0.91375,0 0.82125,-2.31 0.915,-0.007 z"
         id="path12127"
         style="fill:#f68b1f;fill-opacity:1;fill-rule:nonzero;stroke:none" />
      <path
         d="m 603.60271,859.66632 -0.14375,0.40875 -1.6075,0 c -0.13,0 -0.2725,0.0338 -0.43,0.1 -0.3025,0.12375 -0.5075,0.34 -0.6175,0.64375 -0.03,0.095 -0.0475,0.18625 -0.0475,0.27 0,0.15125 0.0525,0.27125 0.155,0.36125 0.1,0.09 0.24125,0.1325 0.42625,0.1325 l 0.66875,0 0.34125,-0.95625 0.91125,0 -0.47875,1.3575 -1.71,-0.003 c -0.34375,0 -0.635,-0.0625 -0.8675,-0.18875 -0.27125,-0.15 -0.40875,-0.36 -0.40875,-0.63 0,-0.1075 0.0225,-0.22125 0.0663,-0.34375 0.16625,-0.4725 0.55875,-0.805 1.175,-1 0.31625,-0.1 0.61375,-0.1525 0.88375,-0.1525 l 1.68375,0 z"
         id="path12131"
         style="fill:#f68b1f;fill-opacity:1;fill-rule:nonzero;stroke:none" />
      <path
         d="m 609.90508,860.37982 c 0,-0.1 -0.055,-0.17625 -0.1625,-0.23 -0.0862,-0.0487 -0.1925,-0.0738 -0.32,-0.0738 l -0.80625,0 -0.29125,0.82 0.83125,0 c 0.0975,0 0.205,-0.02 0.31875,-0.0575 0.2125,-0.0662 0.34875,-0.17875 0.4025,-0.3375 0.0175,-0.0438 0.0275,-0.0838 0.0275,-0.12125 m -0.005,0.80625 0.40875,0.79875 -0.89625,0 -0.355,-0.6875 -0.875,0 -0.2475,0.6875 -0.9125,0 0.82125,-2.31125 1.91,0 c 0.27625,0 0.52125,0.0375 0.73625,0.1175 0.2925,0.10375 0.43875,0.2625 0.43875,0.4725 0,0.0613 -0.0125,0.12625 -0.035,0.19 -0.11875,0.3325 -0.45125,0.575 -0.99375,0.7325"
         id="path12135"
         style="fill:#f68b1f;fill-opacity:1;fill-rule:nonzero;stroke:none" />
      <path
         d="m 599.80533,859.66632 -0.8225,2.3175 -0.91375,0 0.82125,-2.31 0.915,-0.007 z"
         id="path12139"
         style="fill:none;stroke:#f68b1f;stroke-width:0.02453593;stroke-linecap:butt;stroke-linejoin:miter;stroke-miterlimit:4;stroke-opacity:1;stroke-dasharray:none" />
      <path
         d="m 603.60271,859.66632 -0.14375,0.40875 -1.6075,0 c -0.13,0 -0.2725,0.0338 -0.43,0.1 -0.3025,0.12375 -0.5075,0.34 -0.6175,0.64375 -0.03,0.095 -0.0475,0.18625 -0.0475,0.27 0,0.15125 0.0525,0.27125 0.155,0.36125 0.1,0.09 0.24125,0.1325 0.42625,0.1325 l 0.66875,0 0.34125,-0.95625 0.91125,0 -0.47875,1.3575 -1.71,-0.003 c -0.34375,0 -0.635,-0.0625 -0.8675,-0.18875 -0.27125,-0.15 -0.40875,-0.36 -0.40875,-0.63 0,-0.1075 0.0225,-0.22125 0.0663,-0.34375 0.16625,-0.4725 0.55875,-0.805 1.175,-1 0.31625,-0.1 0.61375,-0.1525 0.88375,-0.1525 l 1.68375,0 z"
         id="path12143"
         style="fill:none;stroke:#f68b1f;stroke-width:0.02453593;stroke-linecap:butt;stroke-linejoin:miter;stroke-miterlimit:4;stroke-opacity:1;stroke-dasharray:none" />
      <path
         d="m 607.26696,859.66632 -0.1425,0.40875 -1.4575,0 c -0.2,0 -0.38875,0.0525 -0.56125,0.155 -0.17375,0.1025 -0.30625,0.235 -0.39875,0.39625 l 2.22125,0 -0.14375,0.405 -2.21375,0 c -0.004,0.17875 0.05,0.31625 0.16125,0.41125 0.105,0.09 0.245,0.1375 0.42375,0.14 l 1.43,0 -0.14375,0.40125 -1.5525,0 c -0.3425,0 -0.63375,-0.0588 -0.86875,-0.18 -0.28,-0.1475 -0.41875,-0.35625 -0.41875,-0.625 0,-0.1 0.02,-0.2075 0.0613,-0.32125 0.17375,-0.49 0.5675,-0.835 1.18625,-1.03375 0.3175,-0.105 0.61375,-0.1575 0.88625,-0.1575 l 1.53125,0 z"
         id="path12147"
         style="fill:#f68b1f;fill-opacity:1;fill-rule:nonzero;stroke:none" />
      <path
         d="m 607.26696,859.66632 -0.1425,0.40875 -1.4575,0 c -0.2,0 -0.38875,0.0525 -0.56125,0.155 -0.17375,0.1025 -0.30625,0.235 -0.39875,0.39625 l 2.22125,0 -0.14375,0.405 -2.21375,0 c -0.004,0.17875 0.05,0.31625 0.16125,0.41125 0.105,0.09 0.245,0.1375 0.42375,0.14 l 1.43,0 -0.14375,0.40125 -1.5525,0 c -0.3425,0 -0.63375,-0.0588 -0.86875,-0.18 -0.28,-0.1475 -0.41875,-0.35625 -0.41875,-0.625 0,-0.1 0.02,-0.2075 0.0613,-0.32125 0.17375,-0.49 0.5675,-0.835 1.18625,-1.03375 0.3175,-0.105 0.61375,-0.1575 0.88625,-0.1575 l 1.53125,0 z"
         id="path12151"
         style="fill:none;stroke:#f68b1f;stroke-width:0.02453593;stroke-linecap:butt;stroke-linejoin:miter;stroke-miterlimit:4;stroke-opacity:1;stroke-dasharray:none" />
      <path
         d="m 609.90508,860.37982 c 0,-0.1 -0.055,-0.17625 -0.1625,-0.23 -0.0862,-0.0487 -0.1925,-0.0738 -0.32,-0.0738 l -0.80625,0 -0.29125,0.82 0.83125,0 c 0.0975,0 0.205,-0.02 0.31875,-0.0575 0.2125,-0.0662 0.34875,-0.17875 0.4025,-0.3375 0.0175,-0.0438 0.0275,-0.0838 0.0275,-0.12125 z m -0.005,0.80625 0.40875,0.79875 -0.89625,0 -0.355,-0.6875 -0.875,0 -0.2475,0.6875 -0.9125,0 0.82125,-2.31125 1.91,0 c 0.27625,0 0.52125,0.0375 0.73625,0.1175 0.2925,0.10375 0.43875,0.2625 0.43875,0.4725 0,0.0613 -0.0125,0.12625 -0.035,0.19 -0.11875,0.3325 -0.45125,0.575 -0.99375,0.7325 z"
         id="path12155"
         style="fill:none;stroke:#f68b1f;stroke-width:0.02453593;stroke-linecap:butt;stroke-linejoin:miter;stroke-miterlimit:4;stroke-opacity:1;stroke-dasharray:none" />
      <path
         d="m 614.92221,859.83519 -0.14625,0.40125 -1.64125,0 c -0.11125,0 -0.22,0.0125 -0.325,0.0387 -0.19625,0.0425 -0.31375,0.11875 -0.34875,0.22625 -0.01,0.02 -0.015,0.0425 -0.015,0.0638 0,0.0838 0.0675,0.145 0.205,0.1825 0.0925,0.0287 0.19625,0.0437 0.31625,0.0437 l 0.44,0 c 0.24375,0 0.46375,0.0312 0.6575,0.0925 0.275,0.0887 0.41125,0.22375 0.41125,0.40625 0,0.045 -0.006,0.095 -0.025,0.15 -0.1,0.27625 -0.38625,0.475 -0.86125,0.6 -0.2425,0.065 -0.47125,0.1025 -0.68875,0.10625 l -1.93625,0 0.1425,-0.4025 1.6525,0 c 0.11125,0 0.22,-0.0137 0.3275,-0.035 0.195,-0.045 0.31125,-0.12125 0.35,-0.2275 0.007,-0.0225 0.0112,-0.0438 0.0112,-0.0625 0,-0.0863 -0.0687,-0.1475 -0.205,-0.18625 -0.0913,-0.0275 -0.19625,-0.0425 -0.3125,-0.0425 l -0.45625,0 c -0.24,0 -0.45875,-0.03 -0.65375,-0.0925 -0.27375,-0.09 -0.4125,-0.225 -0.4125,-0.40375 0,-0.0475 0.01,-0.0975 0.0275,-0.1525 0.0987,-0.275 0.38375,-0.47875 0.85625,-0.60125 0.24375,-0.065 0.47375,-0.1 0.6925,-0.105 l 1.9375,0 z"
         id="path12159"
         style="fill:#000000;fill-opacity:1;fill-rule:nonzero;stroke:none" />
      <path
         d="m 614.92221,859.83519 -0.14625,0.40125 -1.64125,0 c -0.11125,0 -0.22,0.0125 -0.325,0.0387 -0.19625,0.0425 -0.31375,0.11875 -0.34875,0.22625 -0.01,0.02 -0.015,0.0425 -0.015,0.0638 0,0.0838 0.0675,0.145 0.205,0.1825 0.0925,0.0287 0.19625,0.0437 0.31625,0.0437 l 0.44,0 c 0.24375,0 0.46375,0.0312 0.6575,0.0925 0.275,0.0887 0.41125,0.22375 0.41125,0.40625 0,0.045 -0.006,0.095 -0.025,0.15 -0.1,0.27625 -0.38625,0.475 -0.86125,0.6 -0.2425,0.065 -0.47125,0.1025 -0.68875,0.10625 l -1.93625,0 0.1425,-0.4025 1.6525,0 c 0.11125,0 0.22,-0.0137 0.3275,-0.035 0.195,-0.045 0.31125,-0.12125 0.35,-0.2275 0.007,-0.0225 0.0112,-0.0438 0.0112,-0.0625 0,-0.0863 -0.0687,-0.1475 -0.205,-0.18625 -0.0913,-0.0275 -0.19625,-0.0425 -0.3125,-0.0425 l -0.45625,0 c -0.24,0 -0.45875,-0.03 -0.65375,-0.0925 -0.27375,-0.09 -0.4125,-0.225 -0.4125,-0.40375 0,-0.0475 0.01,-0.0975 0.0275,-0.1525 0.0987,-0.275 0.38375,-0.47875 0.85625,-0.60125 0.24375,-0.065 0.47375,-0.1 0.6925,-0.105 l 1.9375,0 z"
         id="path12163"
         style="fill:none;stroke:#000000;stroke-width:0.02453593;stroke-linecap:butt;stroke-linejoin:miter;stroke-miterlimit:4;stroke-opacity:1;stroke-dasharray:none" />
      <path
         d="m 614.74033,859.67357 -0.14625,0.40125 -1.6425,0 c -0.11125,0 -0.21875,0.015 -0.3225,0.0387 -0.1975,0.0425 -0.31375,0.11875 -0.35125,0.22625 -0.01,0.02 -0.015,0.0425 -0.015,0.0612 0,0.0862 0.0688,0.15 0.205,0.185 0.0925,0.0288 0.1975,0.0413 0.31875,0.0413 l 0.44,0 c 0.24375,0 0.4625,0.0337 0.65625,0.095 0.275,0.0888 0.4125,0.22375 0.4125,0.40625 0,0.045 -0.009,0.095 -0.0263,0.1475 -0.1,0.27875 -0.38625,0.4775 -0.86125,0.60375 -0.24125,0.0662 -0.47125,0.10125 -0.68875,0.105 l -1.935,0 0.14125,-0.4025 1.6525,0 c 0.11125,0 0.22,-0.0113 0.3275,-0.035 0.19375,-0.045 0.31125,-0.12125 0.35125,-0.2275 0.008,-0.0225 0.009,-0.0438 0.009,-0.0625 0,-0.0863 -0.0662,-0.1475 -0.20375,-0.18625 -0.0913,-0.0275 -0.19625,-0.04 -0.31375,-0.04 l -0.45625,0 c -0.23875,0 -0.4575,-0.0325 -0.6525,-0.095 -0.27375,-0.09 -0.4125,-0.225 -0.4125,-0.40375 0,-0.0475 0.01,-0.095 0.0275,-0.1525 0.0987,-0.275 0.38375,-0.47875 0.85625,-0.59875 0.2425,-0.0675 0.47375,-0.1025 0.69125,-0.1075 l 1.93875,0 z"
         id="path12167"
         style="fill:#f68b1f;fill-opacity:1;fill-rule:nonzero;stroke:none" />
      <path
         d="m 614.74033,859.67357 -0.14625,0.40125 -1.6425,0 c -0.11125,0 -0.21875,0.015 -0.3225,0.0387 -0.1975,0.0425 -0.31375,0.11875 -0.35125,0.22625 -0.01,0.02 -0.015,0.0425 -0.015,0.0612 0,0.0862 0.0688,0.15 0.205,0.185 0.0925,0.0288 0.1975,0.0413 0.31875,0.0413 l 0.44,0 c 0.24375,0 0.4625,0.0337 0.65625,0.095 0.275,0.0888 0.4125,0.22375 0.4125,0.40625 0,0.045 -0.009,0.095 -0.0263,0.1475 -0.1,0.27875 -0.38625,0.4775 -0.86125,0.60375 -0.24125,0.0662 -0.47125,0.10125 -0.68875,0.105 l -1.935,0 0.14125,-0.4025 1.6525,0 c 0.11125,0 0.22,-0.0113 0.3275,-0.035 0.19375,-0.045 0.31125,-0.12125 0.35125,-0.2275 0.008,-0.0225 0.009,-0.0438 0.009,-0.0625 0,-0.0863 -0.0662,-0.1475 -0.20375,-0.18625 -0.0913,-0.0275 -0.19625,-0.04 -0.31375,-0.04 l -0.45625,0 c -0.23875,0 -0.4575,-0.0325 -0.6525,-0.095 -0.27375,-0.09 -0.4125,-0.225 -0.4125,-0.40375 0,-0.0475 0.01,-0.095 0.0275,-0.1525 0.0987,-0.275 0.38375,-0.47875 0.85625,-0.59875 0.2425,-0.0675 0.47375,-0.1025 0.69125,-0.1075 l 1.93875,0 z"
         id="path12171"
         style="fill:none;stroke:#f68b1f;stroke-width:0.02453593;stroke-linecap:butt;stroke-linejoin:miter;stroke-miterlimit:4;stroke-opacity:1;stroke-dasharray:none" />
      <path
         d="m 594.99634,859.7472 -0.15375,0.42875 1.285,0 -0.73,1.98375 0.98875,0 0.7275,-1.98375 1.29375,0 0.1525,-0.42875 -3.56375,0 z"
         id="path12175"
         style="fill:#000000;fill-opacity:1;fill-rule:nonzero;stroke:none" />
      <path
         d="m 594.99634,859.7472 -0.15375,0.42875 1.285,0 -0.73,1.98375 0.98875,0 0.7275,-1.98375 1.29375,0 0.1525,-0.42875 -3.56375,0 z"
         id="path12179"
         style="fill:none;stroke:#000000;stroke-width:0.01023684;stroke-linecap:butt;stroke-linejoin:miter;stroke-miterlimit:4;stroke-opacity:1;stroke-dasharray:none" />
      <path
         d="m 594.82283,859.5832 -0.1525,0.42875 1.2825,0 -0.7275,1.98125 0.985,0 0.72625,-1.98125 1.29125,0 0.15375,-0.42875 -3.55875,0 z"
         id="path12183"
         style="fill:#f68b1f;fill-opacity:1;fill-rule:nonzero;stroke:none" />
      <path
         d="m 594.82283,859.5832 -0.1525,0.42875 1.2825,0 -0.7275,1.98125 0.985,0 0.72625,-1.98125 1.29125,0 0.15375,-0.42875 -3.55875,0 z"
         id="path12187"
         style="fill:none;stroke:#f68b1f;stroke-width:0.01023684;stroke-linecap:butt;stroke-linejoin:miter;stroke-miterlimit:4;stroke-opacity:1;stroke-dasharray:none" />
    </g>
  </g>
</svg>
